<?xml version="1.0" encoding="UTF-8"?>
<svg width="512px" height="512px" viewBox="0 0 512 512" version="1.1" xmlns="http://www.w3.org/2000/svg" xmlns:xlink="http://www.w3.org/1999/xlink">
    <title>Bel Sekolah Logo</title>
    <defs>
        <linearGradient x1="50%" y1="0%" x2="50%" y2="100%" id="linearGradient-1">
            <stop stop-color="#4FACFE" offset="0%"></stop>
            <stop stop-color="#00F2FE" offset="100%"></stop>
        </linearGradient>
        <linearGradient x1="50%" y1="0%" x2="50%" y2="100%" id="linearGradient-2">
            <stop stop-color="#FEB60A" offset="0%"></stop>
            <stop stop-color="#FF761B" offset="100%"></stop>
        </linearGradient>
    </defs>
    <g id="Page-1" stroke="none" stroke-width="1" fill="none" fill-rule="evenodd">
        <g id="bel_sekolah_logo">
            <circle id="Oval" fill="#FFFFFF" cx="256" cy="256" r="256"></circle>
            
            <path d="M198,130 C220,108 250,100 280,108 M170,160 C205,135 255,125 300,140 M140,190 C190,165 260,155 320,180" id="Waves" stroke="url(#linearGradient-1)" stroke-width="20" stroke-linecap="round"></path>
            
            <path d="M256,190 C310,190 360,230 360,320 L360,360 L152,360 L152,320 C152,230 202,190 256,190 Z" id="Bell_Body" fill="url(#linearGradient-2)"></path>
            
            <rect id="Rectangle" fill="#E66A15" x="130" y="360" width="252" height="30" rx="15"></rect>
            
            <circle id="Oval" fill="#333333" cx="256" cy="410" r="30"></circle>
        </g>
    </g>
</svg>